<svg width="25" height="26" viewBox="0 0 25 26" fill="none" xmlns="http://www.w3.org/2000/svg">
<path d="M21.2567 25C21.9558 25 22.6042 24.6349 22.9668 24.0371L23.3022 23.4839C23.7241 22.7883 23.6771 21.9088 23.0793 21.357C21.5498 19.9449 18.0712 17.5 12.3203 17.5C6.5486 17.5 3.24878 19.9626 1.83272 21.3722C1.28164 21.9208 1.2578 22.7584 1.661 23.4233L2.03323 24.0371" stroke="#6B4EFF" stroke-width="1.5" stroke-linecap="round" stroke-linejoin="round"/>
<path d="M12.5 11.6667C15.6756 11.6667 18.25 9.27885 18.25 6.33333C18.25 3.38781 15.6756 1 12.5 1C9.32436 1 6.75 3.38781 6.75 6.33333C6.75 9.27885 9.32436 11.6667 12.5 11.6667Z" stroke="#6B4EFF" stroke-width="1.5" stroke-linecap="round" stroke-linejoin="round"/>
</svg>
