<svg width="22" height="24" viewBox="0 0 22 24" fill="none" xmlns="http://www.w3.org/2000/svg">
<path d="M18.4266 23.2001C19.1478 23.2001 19.8131 22.8118 20.1679 22.1839L20.3831 21.803C20.7603 21.1353 20.7196 20.3115 20.1729 19.7737C18.8295 18.452 15.8116 16.2 10.8437 16.2C5.85388 16.2 2.98871 18.472 1.74563 19.7912C1.24354 20.3241 1.22412 21.1078 1.58427 21.7452L1.83211 22.1839" stroke="#686868" stroke-width="1.5" stroke-linecap="round" stroke-linejoin="round"/>
<path d="M11 10.7556C13.7614 10.7556 16 8.52698 16 5.77783C16 3.02868 13.7614 0.800049 11 0.800049C8.23858 0.800049 6 3.02868 6 5.77783C6 8.52698 8.23858 10.7556 11 10.7556Z" stroke="#686868" stroke-width="1.5" stroke-linecap="round" stroke-linejoin="round"/>
</svg>
