<svg width="49" height="49" viewBox="0 0 49 49" fill="none" xmlns="http://www.w3.org/2000/svg">
<path fill-rule="evenodd" clip-rule="evenodd" d="M19.9635 42.8751H29.0366C35.4087 42.8751 38.5957 42.8751 40.8844 41.3745C41.8722 40.7275 42.7228 39.8922 43.3875 38.9163C44.9167 36.6705 44.9167 33.5406 44.9167 27.2849C44.9167 21.0293 44.9167 17.8994 43.3875 15.6536C42.7228 14.6776 41.8722 13.8423 40.8844 13.1954C39.4144 12.2297 37.5728 11.8846 34.7533 11.7621C33.4078 11.7621 32.2502 10.7617 31.9868 9.46526C31.7856 8.51562 31.2626 7.66459 30.5063 7.05599C29.75 6.4474 28.8068 6.11858 27.8361 6.1251H21.164C19.1468 6.1251 17.4093 7.52364 17.0132 9.46526C16.7499 10.7617 15.5922 11.7621 14.2468 11.7621C11.4293 11.8846 9.58771 12.2317 8.11566 13.1954C7.12859 13.8425 6.27872 14.6778 5.61462 15.6536C4.08337 17.8994 4.08337 21.0272 4.08337 27.2849C4.08337 33.5426 4.08337 36.6684 5.61258 38.9163C6.27408 39.8881 7.12342 40.7232 8.11566 41.3745C10.4044 42.8751 13.5914 42.8751 19.9635 42.8751ZM24.5 18.9325C19.8022 18.9325 15.9924 22.6708 15.9924 27.2829C15.9924 31.895 19.8042 35.6394 24.5 35.6394C29.1959 35.6394 33.0077 31.8991 33.0077 27.287C33.0077 22.6748 29.1959 18.9325 24.5 18.9325ZM24.5 22.2726C21.6825 22.2726 19.3959 24.5164 19.3959 27.2849C19.3959 30.0514 21.6825 32.2952 24.5 32.2952C27.3175 32.2952 29.6042 30.0514 29.6042 27.2849C29.6042 24.5185 27.3175 22.2726 24.5 22.2726ZM34.1408 20.6026C34.1408 19.6797 34.9023 18.9325 35.8435 18.9325H38.1098C39.049 18.9325 39.8125 19.6797 39.8125 20.6026C39.8082 21.0495 39.6267 21.4764 39.3078 21.7895C38.9889 22.1027 38.5588 22.2764 38.1118 22.2726H35.8435C35.6221 22.2748 35.4023 22.2333 35.1969 22.1505C34.9915 22.0678 34.8044 21.9454 34.6463 21.7903C34.4881 21.6352 34.3621 21.4505 34.2754 21.2467C34.1887 21.0429 34.1429 20.824 34.1408 20.6026Z" fill="black"/>
</svg>
