<svg width="25" height="25" viewBox="0 0 25 25" fill="none" xmlns="http://www.w3.org/2000/svg">
<path d="M12.6161 19.406C12.5382 19.027 12.499 18.6396 12.5 18.25V17.9118C12.5778 16.5018 13.1729 15.17 14.1715 14.1715C15.17 13.1729 16.5018 12.5778 17.9118 12.5H18.25C18.6406 12.499 19.0288 12.5383 19.4088 12.6166M12.6161 19.406C12.7167 19.8956 12.882 20.3714 13.1088 20.8206C13.5861 21.7756 14.3199 22.5788 15.2279 23.1404C16.1359 23.7019 17.1824 23.9996 18.25 24C18.9849 24.0019 19.7116 23.8609 20.3902 23.5865C20.6749 23.4713 20.9839 23.4188 21.2867 23.4701L22.1374 23.5607C22.9571 23.648 23.6484 22.9567 23.5609 22.137L23.4701 21.2867C23.4188 20.9839 23.4713 20.6749 23.5865 20.3902C23.8609 19.7116 24.0019 18.9849 24 18.25C23.9996 17.1824 23.7019 16.1359 23.1404 15.2279C22.5788 14.3199 21.7756 13.5861 20.8206 13.1088C20.3722 12.8824 19.8974 12.7173 19.4088 12.6166M12.6161 19.406C11.8765 19.5918 11.1135 19.6872 10.3438 19.6875C9.14954 19.6906 7.96862 19.4615 6.86601 19.0156C6.40335 18.8284 5.90109 18.7431 5.40904 18.8265L3.38487 19.0421C2.38297 19.1488 1.53815 18.3038 1.64508 17.3019L1.86105 15.2785C1.9444 14.7864 1.85906 14.2841 1.67195 13.8215C1.22602 12.7189 0.996918 11.538 1.00003 10.3438C1.0007 8.60885 1.48438 6.9084 2.39688 5.43286C3.30939 3.95732 4.61468 2.76497 6.16656 1.98937C7.46161 1.33523 8.89287 0.996248 10.3438 1.00003H10.8934C13.1846 1.12644 15.3487 2.09353 16.9713 3.71615C18.594 5.33877 19.5611 7.50288 19.6875 9.79412V10.3438C19.6895 11.1127 19.5952 11.8761 19.4088 12.6166" stroke="#6B4EFF" stroke-width="1.5" stroke-linecap="round" stroke-linejoin="round"/>
</svg>
