<svg width="23" height="25" viewBox="0 0 23 25" fill="none" xmlns="http://www.w3.org/2000/svg">
<path fill-rule="evenodd" clip-rule="evenodd" d="M10.2545 0H12.7455C14.9134 0 16.6308 0 17.9742 0.177907C19.3566 0.361628 20.4759 0.747674 21.3593 1.61744C22.2416 2.48837 22.6332 3.59186 22.8195 4.95465C23 6.28023 23 7.97209 23 10.1093V14.8907C23 17.0279 23 18.7209 22.8195 20.0453C22.6332 21.4081 22.2416 22.5116 21.3593 23.3826C20.4759 24.2523 19.3566 24.6384 17.9742 24.8221C16.6296 25 14.9134 25 12.7455 25H10.2545C8.08656 25 6.36923 25 5.02579 24.8221C3.64344 24.6384 2.5241 24.2523 1.64067 23.3826C0.75841 22.5116 0.366821 21.4081 0.180462 20.0453C1.49012e-07 18.7198 0 17.0279 0 14.8907V10.1093C0 7.97209 1.49012e-07 6.27907 0.180462 4.95465C0.366821 3.59186 0.75841 2.48837 1.64067 1.61744C2.5241 0.747674 3.64344 0.361628 5.02579 0.177907C6.37041 0 8.08656 0 10.2545 0ZM5.26051 1.90698C4.07395 2.06395 3.38985 2.3593 2.88974 2.85116C2.392 3.34302 2.09241 4.01744 1.93318 5.18721C1.77041 6.38256 1.76805 7.95698 1.76805 10.1744V14.8256C1.76805 17.043 1.77041 18.6186 1.93318 19.814C2.09241 20.9826 2.392 21.657 2.89092 22.1488C3.38985 22.6407 4.07395 22.936 5.26051 23.093C6.47303 23.2535 8.07005 23.2558 10.3193 23.2558H12.6783C14.9276 23.2558 16.5258 23.2535 17.7383 23.093C18.9237 22.936 19.6078 22.6407 20.1067 22.1488C20.6056 21.657 20.9052 20.9826 21.0645 19.8128C21.2272 18.6186 21.2296 17.043 21.2296 14.8256V10.1744C21.2296 7.95698 21.2272 6.38256 21.0645 5.18605C20.9052 4.01744 20.6056 3.34302 20.1067 2.85116C19.6078 2.3593 18.9237 2.06395 17.7371 1.90698C16.5258 1.74651 14.9276 1.74419 12.6783 1.74419H10.3193C8.07005 1.74419 6.47421 1.74651 5.26051 1.90698ZM5.89744 10.1744C5.89744 9.94312 5.99064 9.7213 6.15653 9.55776C6.32243 9.39421 6.54744 9.30233 6.78205 9.30233H16.2179C16.4526 9.30233 16.6776 9.39421 16.8435 9.55776C17.0094 9.7213 17.1026 9.94312 17.1026 10.1744C17.1026 10.4057 17.0094 10.6275 16.8435 10.7911C16.6776 10.9546 16.4526 11.0465 16.2179 11.0465H6.78205C6.54744 11.0465 6.32243 10.9546 6.15653 10.7911C5.99064 10.6275 5.89744 10.4057 5.89744 10.1744ZM5.89744 14.8256C5.89744 14.5943 5.99064 14.3725 6.15653 14.2089C6.32243 14.0454 6.54744 13.9535 6.78205 13.9535H12.6795C12.9141 13.9535 13.1391 14.0454 13.305 14.2089C13.4709 14.3725 13.5641 14.5943 13.5641 14.8256C13.5641 15.0569 13.4709 15.2787 13.305 15.4422C13.1391 15.6058 12.9141 15.6977 12.6795 15.6977H6.78205C6.54744 15.6977 6.32243 15.6058 6.15653 15.4422C5.99064 15.2787 5.89744 15.0569 5.89744 14.8256Z" fill="#6B4EFF"/>
</svg>
