<svg width="25" height="21" viewBox="0 0 25 21" fill="none" xmlns="http://www.w3.org/2000/svg">
<path d="M22.2265 2.82118C21.6645 2.24381 20.9972 1.7858 20.2628 1.47332C19.5284 1.16084 18.7412 1 17.9463 1C17.1513 1 16.3641 1.16084 15.6297 1.47332C14.8953 1.7858 14.228 2.24381 13.666 2.82118L12.943 3.56366C12.6982 3.81506 12.3012 3.81506 12.0564 3.56366L11.3334 2.82118C10.1982 1.65549 8.65855 1.0006 7.05315 1.0006C5.44776 1.0006 3.90811 1.65549 2.77293 2.82118C1.63774 3.98687 1 5.5679 1 7.21644C1 8.86498 1.63774 10.446 2.77293 11.6117L9.84 18.8687C11.3089 20.3771 13.6905 20.3771 15.1594 18.8687L22.2265 11.6117C22.7887 11.0346 23.2348 10.3494 23.5391 9.59525C23.8434 8.8411 24 8.03277 24 7.21644C24 6.40011 23.8434 5.59178 23.5391 4.83763C23.2348 4.08347 22.7887 3.39828 22.2265 2.82118Z" stroke="#6B4EFF" stroke-width="1.5" stroke-linecap="round" stroke-linejoin="round"/>
</svg>
