<svg width="17" height="20" viewBox="0 0 17 20" fill="none" xmlns="http://www.w3.org/2000/svg">
<path d="M16 8.66666C16 12.7222 12.5308 16.3836 10.3113 18.3112C9.25376 19.2296 7.74624 19.2296 6.68866 18.3112C4.46918 16.3836 1 12.7222 1 8.66666C1 6.63334 1.79018 4.68329 3.1967 3.24551C4.60322 1.80774 6.51088 1 8.5 1C10.4891 1 12.3968 1.80774 13.8033 3.24551C15.2098 4.68329 16 6.63334 16 8.66666Z" stroke="#6B4EFF" stroke-width="1.5" stroke-linecap="round" stroke-linejoin="round"/>
<path d="M8.5 11.2222C9.88071 11.2222 11 10.0781 11 8.66666C11 7.25527 9.88071 6.11111 8.5 6.11111C7.11929 6.11111 6 7.25527 6 8.66666C6 10.0781 7.11929 11.2222 8.5 11.2222Z" stroke="#6B4EFF" stroke-width="1.5" stroke-linecap="round" stroke-linejoin="round"/>
</svg>
