<svg width="23" height="25" viewBox="0 0 23 25" fill="none" xmlns="http://www.w3.org/2000/svg">
<path fill-rule="evenodd" clip-rule="evenodd" d="M10.2545 0H12.7455C14.9134 0 16.6308 0 17.9742 0.177907C19.3566 0.361628 20.4759 0.747674 21.3593 1.61744C22.2416 2.48837 22.6332 3.59186 22.8195 4.95465C23 6.28023 23 7.97209 23 10.1093V14.8907C23 17.0279 23 18.7209 22.8195 20.0453C22.6332 21.4081 22.2416 22.5116 21.3593 23.3826C20.4759 24.2523 19.3566 24.6384 17.9742 24.8221C16.6296 25 14.9134 25 12.7455 25H10.2545C8.08657 25 6.36923 25 5.0258 24.8221C3.64344 24.6384 2.5241 24.2523 1.64067 23.3826C0.75841 22.5116 0.366821 21.4081 0.180462 20.0453C1.40606e-07 18.7198 0 17.0279 0 14.8907V10.1093C0 7.97209 1.40606e-07 6.27907 0.180462 4.95465C0.366821 3.59186 0.75841 2.48837 1.64067 1.61744C2.5241 0.747674 3.64344 0.361628 5.0258 0.177907C6.37041 0 8.08657 0 10.2545 0ZM5.26051 1.90698C4.07395 2.06395 3.38985 2.3593 2.88974 2.85116C2.392 3.34302 2.09241 4.01744 1.93318 5.18721C1.77041 6.38256 1.76805 7.95698 1.76805 10.1744V14.8256C1.76805 17.043 1.77041 18.6186 1.93318 19.814C2.09241 20.9826 2.392 21.657 2.89092 22.1488C3.38985 22.6407 4.07395 22.936 5.26051 23.093C6.47303 23.2535 8.07005 23.2558 10.3193 23.2558H12.6783C14.9276 23.2558 16.5258 23.2535 17.7383 23.093C18.9237 22.936 19.6078 22.6407 20.1067 22.1488C20.6056 21.657 20.9052 20.9826 21.0645 19.8128C21.2272 18.6186 21.2296 17.043 21.2296 14.8256V10.1744C21.2296 7.95698 21.2272 6.38256 21.0645 5.18605C20.9052 4.01744 20.6056 3.34302 20.1067 2.85116C19.6078 2.3593 18.9237 2.06395 17.7371 1.90698C16.5258 1.74651 14.9276 1.74419 12.6783 1.74419H10.3193C8.07005 1.74419 6.47421 1.74651 5.26051 1.90698ZM11.5 4.65116C11.7346 4.65116 11.9596 4.74304 12.1255 4.90659C12.2914 5.07014 12.3846 5.29196 12.3846 5.52326V6.97674H13.859C14.0936 6.97674 14.3186 7.06862 14.4845 7.23217C14.6504 7.39572 14.7436 7.61754 14.7436 7.84884C14.7436 8.08013 14.6504 8.30195 14.4845 8.4655C14.3186 8.62905 14.0936 8.72093 13.859 8.72093H12.3846V10.1744C12.3846 10.4057 12.2914 10.6275 12.1255 10.7911C11.9596 10.9546 11.7346 11.0465 11.5 11.0465C11.2654 11.0465 11.0404 10.9546 10.8745 10.7911C10.7086 10.6275 10.6154 10.4057 10.6154 10.1744V8.72093H9.14103C8.90641 8.72093 8.68141 8.62905 8.51551 8.4655C8.34961 8.30195 8.25641 8.08013 8.25641 7.84884C8.25641 7.61754 8.34961 7.39572 8.51551 7.23217C8.68141 7.06862 8.90641 6.97674 9.14103 6.97674H10.6154V5.52326C10.6154 5.29196 10.7086 5.07014 10.8745 4.90659C11.0404 4.74304 11.2654 4.65116 11.5 4.65116ZM5.89744 14.8256C5.89744 14.5943 5.99064 14.3725 6.15653 14.2089C6.32243 14.0454 6.54744 13.9535 6.78205 13.9535H16.2179C16.4526 13.9535 16.6776 14.0454 16.8435 14.2089C17.0094 14.3725 17.1026 14.5943 17.1026 14.8256C17.1026 15.0569 17.0094 15.2787 16.8435 15.4422C16.6776 15.6058 16.4526 15.6977 16.2179 15.6977H6.78205C6.54744 15.6977 6.32243 15.6058 6.15653 15.4422C5.99064 15.2787 5.89744 15.0569 5.89744 14.8256ZM7.07692 19.4767C7.07692 19.2455 7.17012 19.0236 7.33602 18.8601C7.50192 18.6965 7.72692 18.6047 7.96154 18.6047H15.0385C15.2731 18.6047 15.4981 18.6965 15.664 18.8601C15.8299 19.0236 15.9231 19.2455 15.9231 19.4767C15.9231 19.708 15.8299 19.9299 15.664 20.0934C15.4981 20.257 15.2731 20.3488 15.0385 20.3488H7.96154C7.72692 20.3488 7.50192 20.257 7.33602 20.0934C7.17012 19.9299 7.07692 19.708 7.07692 19.4767Z" fill="#6B4EFF"/>
</svg>
