<svg width="22" height="22" viewBox="0 0 22 22" fill="none" xmlns="http://www.w3.org/2000/svg">
<path d="M7.25 11.25H7.26M11.01 11.25H11.02M14.77 11.25H14.78M21 11C21.004 12.5528 20.6412 14.0846 19.9411 15.4706C19.1111 17.1314 17.835 18.5284 16.2558 19.505C14.6766 20.4816 12.8568 20.9992 11 21C9.72192 21.0033 8.45806 20.7581 7.278 20.2809C6.78285 20.0806 6.24531 19.9893 5.7187 20.0785L3.16154 20.3508C2.29032 20.4436 1.55569 19.7088 1.64868 18.8376L1.92152 16.2813C2.01073 15.7547 1.91939 15.2171 1.71914 14.722C1.2419 13.5419 0.996701 12.2781 1.00003 11C1.00075 9.14325 1.5184 7.32337 2.49499 5.74419C3.47159 4.16502 4.86856 2.88893 6.52943 2.05885C7.91544 1.35877 9.44722 0.995985 11 1.00003H11.5882C14.0404 1.13532 16.3565 2.17034 18.0931 3.90692C19.8297 5.6435 20.8647 7.9596 21 10.4118V11Z" stroke="#686868" stroke-width="1.5" stroke-linecap="round" stroke-linejoin="round"/>
</svg>
