<svg width="24" height="29" viewBox="0 0 24 29" fill="none" xmlns="http://www.w3.org/2000/svg">
<path d="M1.02985 6.10165V23.9524C1.02985 25.0449 1.46386 26.0927 2.2364 26.8653C3.00894 27.6378 4.05672 28.0718 5.14926 28.0718H18.8806C19.9731 28.0718 21.0209 27.6378 21.7935 26.8653C22.566 26.0927 23 25.0449 23 23.9524V10.2211C23 9.12852 22.566 8.08073 21.7935 7.3082C21.0209 6.53566 19.9731 6.10165 18.8806 6.10165H1.02985ZM1.02985 6.10165V4.72852" stroke="#6B4EFF" stroke-width="1.5"/>
<path d="M12.0149 19.833C14.29 19.833 16.1343 17.9887 16.1343 15.7136C16.1343 13.4386 14.29 11.5942 12.0149 11.5942C9.73984 11.5942 7.89552 13.4386 7.89552 15.7136C7.89552 17.9887 9.73984 19.833 12.0149 19.833Z" stroke="#6B4EFF" stroke-width="1.5"/>
<path d="M20.7832 6.60156V6.63184H20.7539V6.60156H20.7832ZM18.7236 5.57227V6.60156H19.7539V6.63184H2.99902L3 5.57227H18.7236ZM1.70508 5.13281C1.74228 5.19184 1.78539 5.2473 1.83496 5.29688C1.88458 5.34648 1.93993 5.38955 1.99902 5.42676V6.56543C1.97274 6.55862 1.94594 6.55379 1.91992 6.5459L1.73438 6.47949C1.55241 6.40415 1.38316 6.30219 1.23145 6.17773L1.08594 6.0459C0.946555 5.90652 0.828875 5.74745 0.736328 5.57422L0.652344 5.39746C0.616738 5.31144 0.589602 5.22226 0.566406 5.13281H1.70508ZM19.7539 5.57227V5.60156H19.7236V5.57227H19.7539ZM20.7832 4.27539V5.60156H20.7539V4.57227H19.7236V4.27539H20.7832ZM1.89258 3.91504L1.79004 4.01562C1.75792 4.05263 1.72884 4.09174 1.70312 4.13281H0.563477C0.625231 3.89222 0.730669 3.66398 0.876953 3.46094L0.988281 3.32031C1.19249 3.08476 1.4478 2.90218 1.73145 2.78418L1.89258 3.91504ZM16.6982 1.65332L2.8623 3.62793L2.71289 2.5791L16.5488 0.603516L16.6982 1.65332ZM17.5439 0.500977C17.7857 0.50367 18.0268 0.532013 18.2627 0.587891L18.4326 0.632812C18.8265 0.748733 19.1942 0.938169 19.5176 1.18945L19.6533 1.30078C19.9636 1.56983 20.2203 1.89483 20.4102 2.25781L20.4873 2.41602C20.6124 2.69007 20.6983 2.97924 20.7441 3.27539H19.665C19.6495 3.2083 19.6321 3.14161 19.6104 3.07617L19.5234 2.85547C19.4245 2.63887 19.2914 2.44019 19.1299 2.2666L18.959 2.10156C18.7191 1.89361 18.4374 1.739 18.1328 1.64941C17.99 1.60742 17.8439 1.58163 17.6973 1.56934L17.5439 0.500977Z" fill="black" stroke="#6B4EFF"/>
<path d="M9.26865 23.9524H14.7612" stroke="#6B4EFF" stroke-width="1.5" stroke-linecap="round"/>
</svg>
