<svg width="25" height="20" viewBox="0 0 25 20" fill="none" xmlns="http://www.w3.org/2000/svg">
<path d="M15.0506 13.2801C14.6364 13.2801 14.3006 13.6159 14.3006 14.0301C14.3006 14.4443 14.6364 14.7801 15.0506 14.7801V13.2801ZM18.6331 14.7801C19.0473 14.7801 19.3831 14.4443 19.3831 14.0301C19.3831 13.6159 19.0473 13.2801 18.6331 13.2801V14.7801ZM1.00001 14.5L1.75001 14.5L1.00001 14.5ZM1.00002 5.5L1.75002 5.5V5.5H1.00002ZM1 7.75H24V6.25H1V7.75ZM15.0506 14.7801H18.6331V13.2801H15.0506V14.7801ZM0.250008 14.5C0.250003 17.3691 2.4868 19.75 5.3125 19.75V18.25C3.37475 18.25 1.75 16.6015 1.75001 14.5L0.250008 14.5ZM23.25 14.5C23.25 16.6015 21.6253 18.25 19.6875 18.25V19.75C22.5132 19.75 24.75 17.3691 24.75 14.5H23.25ZM24.75 5.5C24.75 2.63091 22.5132 0.25 19.6875 0.25V1.75C21.6253 1.75 23.25 3.39853 23.25 5.5H24.75ZM1.75002 5.5C1.75002 3.39853 3.37476 1.75 5.31251 1.75V0.25C2.48681 0.25 0.250017 2.63091 0.250017 5.5H1.75002ZM23.25 5.5V14.5H24.75V5.5H23.25ZM1.75001 14.5L1.75002 5.5L0.250017 5.5L0.250008 14.5L1.75001 14.5ZM5.31251 1.75H19.6875V0.25H5.31251V1.75ZM19.6875 18.25H5.3125V19.75H19.6875V18.25Z" fill="#6B4EFF"/>
</svg>
