<svg width="23" height="21" viewBox="0 0 23 21" fill="none" xmlns="http://www.w3.org/2000/svg">
<path d="M11.167 1.12793C11.2652 0.82556 11.6728 0.806599 11.8096 1.07129L11.833 1.12793L13.6885 6.83789C13.9094 7.51773 14.543 7.97852 15.2578 7.97852H21.2617C21.5795 7.97863 21.723 8.35945 21.5137 8.57129L21.4678 8.61133L16.6104 12.1406C16.0681 12.5346 15.8212 13.2138 15.9746 13.8574L16.0107 13.9854L17.8662 19.6953C17.9644 19.9975 17.646 20.2524 17.3799 20.1191L17.3271 20.0869L12.4697 16.5576C11.9276 16.1638 11.2052 16.1388 10.6406 16.4834L10.5303 16.5576L5.67285 20.0869C5.41558 20.2738 5.07497 20.0495 5.12012 19.7549L5.13379 19.6953L6.98926 13.9854C7.1964 13.3478 6.99675 12.6531 6.49414 12.2227L6.38965 12.1406L1.53223 8.61133C1.25844 8.41195 1.39948 7.97863 1.73828 7.97852H7.74219C8.41237 7.97852 9.01142 7.57368 9.26562 6.96289L9.31152 6.83789L11.167 1.12793Z" stroke="#6B4EFF" stroke-width="1.3"/>
</svg>
