<svg width="266" height="100" viewBox="0 0 266 100" fill="none" xmlns="http://www.w3.org/2000/svg">
<g filter="url(#filter0_d_2_1491)">
<path d="M112 0H154C186 0 195.501 24.1398 205.733 48.6985C216.325 74.1247 227 100 262 100H4.00031C39.0003 100 49.6756 74.1247 60.2681 48.6985C70.4991 24.1398 80.0003 0 112 0Z" fill="url(#paint0_linear_2_1491)"/>
<path d="M112 0.25H154C169.923 0.25 180.229 6.24992 187.838 15.3008C194.509 23.2363 199.109 33.518 203.585 44.1982L205.502 48.7949C210.795 61.4986 216.125 74.3646 224.525 84.0479C231.574 92.1753 240.782 98.0562 253.919 99.75H12.0814C25.2189 98.0562 34.4262 92.1753 41.4759 84.0479C48.8253 75.5749 53.8254 64.6651 58.5062 53.5596L60.4984 48.7949C65.6186 36.5041 70.5381 24.37 78.1624 15.3008C85.7713 6.24992 96.0774 0.25 112 0.25Z" stroke="#7582F4" stroke-opacity="0.5" stroke-width="0.5"/>
</g>
<defs>
<filter id="filter0_d_2_1491" x="0.000305176" y="0" width="266" height="108" filterUnits="userSpaceOnUse" color-interpolation-filters="sRGB">
<feFlood flood-opacity="0" result="BackgroundImageFix"/>
<feColorMatrix in="SourceAlpha" type="matrix" values="0 0 0 0 0 0 0 0 0 0 0 0 0 0 0 0 0 0 127 0" result="hardAlpha"/>
<feOffset dy="4"/>
<feGaussianBlur stdDeviation="2"/>
<feComposite in2="hardAlpha" operator="out"/>
<feColorMatrix type="matrix" values="0 0 0 0 0.458824 0 0 0 0 0.509804 0 0 0 0 0.956863 0 0 0 1 0"/>
<feBlend mode="normal" in2="BackgroundImageFix" result="effect1_dropShadow_2_1491"/>
<feBlend mode="normal" in="SourceGraphic" in2="effect1_dropShadow_2_1491" result="shape"/>
</filter>
<linearGradient id="paint0_linear_2_1491" x1="183.615" y1="100" x2="183.615" y2="0" gradientUnits="userSpaceOnUse">
<stop stop-color="#262C51"/>
<stop offset="1" stop-color="#3E3F74"/>
</linearGradient>
</defs>
</svg>
